<?xml version="1.0" encoding="utf-8"?>

<!DOCTYPE svg PUBLIC "-//W3C//DTD SVG 1.1//EN" "http://www.w3.org/Graphics/SVG/1.1/DTD/svg11.dtd">
<!-- Uploaded to: SVG Repo, www.svgrepo.com, Generator: SVG Repo Mixer Tools -->
<svg version="1.1" id="_x32_" xmlns="http://www.w3.org/2000/svg" xmlns:xlink="http://www.w3.org/1999/xlink" 
	 width="800px" height="800px" viewBox="0 0 512 512"  xml:space="preserve">
<style type="text/css">
<![CDATA[
	.st0{fill:#000000;}
]]>
</style>
<g>
	<path class="st0" d="M422.063,381.563c-1.094,0-1.984,0.359-2.688,1.094s-1.063,1.781-1.063,3.141c0,1.297,0.344,2.328,1.031,3.094
		c0.672,0.766,1.578,1.141,2.719,1.141c1.094,0,1.984-0.359,2.688-1.094c0.719-0.734,1.063-1.781,1.063-3.141
		s-0.344-2.406-1.063-3.141C424.047,381.922,423.156,381.563,422.063,381.563z"/>
	<path class="st0" d="M385.219,388.891c1.031,0,1.875-0.344,2.563-1.047c0.688-0.688,1.016-1.563,1.016-2.625
		c0-1.031-0.328-1.906-1.016-2.594c-0.688-0.719-1.531-1.063-2.563-1.063s-1.906,0.344-2.594,1.063
		c-0.688,0.688-1.031,1.563-1.031,2.594c0,1.063,0.344,1.938,1.031,2.625C383.313,388.547,384.188,388.891,385.219,388.891z"/>
	<path class="st0" d="M311.563,393.063c-1.094,0-1.984,0.359-2.688,1.094c-0.719,0.719-1.063,1.781-1.063,3.125
		c0,1.375,0.344,2.406,1.063,3.156c0.703,0.719,1.594,1.094,2.688,1.094s1.984-0.375,2.688-1.094
		c0.703-0.75,1.063-1.781,1.063-3.156c0-1.297-0.344-2.328-1.031-3.094C313.609,393.438,312.703,393.063,311.563,393.063z"/>
	<path class="st0" d="M385.219,393.5c-1.156,0-2.094,0.391-2.859,1.156c-0.766,0.781-1.141,1.734-1.141,2.875
		c0,1.156,0.375,2.094,1.141,2.859s1.703,1.141,2.859,1.141c1.125,0,2.094-0.375,2.844-1.141c0.766-0.766,1.141-1.703,1.141-2.859
		c0-1.141-0.375-2.094-1.141-2.875C387.313,393.891,386.344,393.5,385.219,393.5z"/>
	<path class="st0" d="M443.969,76H68.031C30.469,76,0,106.469,0,144.031v223.938C0,405.531,30.469,436,68.031,436h375.938
		C481.531,436,512,405.531,512,367.969V144.031C512,106.469,481.531,76,443.969,76z M129.234,121.344
		c10.125,0,18.328,8.203,18.328,18.328S139.359,158,129.234,158s-18.328-8.203-18.328-18.328S119.109,121.344,129.234,121.344z
		 M98.438,189.313v19.75c0,0.672-0.563,1.203-1.281,1.203H86.953h-1.094h-2.703c-0.703,0-1.281-0.531-1.281-1.203v-6.438
		c0-0.672,0.578-1.219,1.281-1.219h1.422v-12.094c0-0.656,0.578-1.203,1.281-1.203h11.297
		C97.875,188.109,98.438,188.656,98.438,189.313z M60.484,139.672c0-10.125,8.203-18.328,18.328-18.328s18.344,8.203,18.344,18.328
		S88.938,158,78.813,158S60.484,149.797,60.484,139.672z M132,406.063h-5.281V382.75l-5.922,5.125v-5.703l5.922-5.141H132V406.063z
		 M144.063,325.609l-2.094,6.297c-0.609,1.75-2.344,2.969-4.344,2.969h-1.297c-1.453,0-2.813-0.656-3.672-1.734
		c-0.859-1.109-1.094-2.547-0.672-3.813l2.094-6.281c0.609-1.766,2.359-2.984,4.359-2.984h1.281c1.453,0,2.813,0.656,3.672,1.734
		C144.25,322.906,144.5,324.313,144.063,325.609z M173.469,401.281v4.781h-17.656v-4.781l10.844-12.594
		c0.531-0.625,0.938-1.188,1.156-1.719c0.234-0.5,0.344-1.094,0.344-1.781c0-1.094-0.297-1.969-0.891-2.625
		c-0.609-0.672-1.469-1-2.609-1c-0.438,0-0.859,0.063-1.281,0.188c-0.422,0.109-0.813,0.313-1.141,0.594
		c-0.344,0.297-0.609,0.672-0.828,1.156c-0.188,0.469-0.297,1.063-0.297,1.766h-5.297c0-1.328,0.219-2.516,0.672-3.563
		s1.078-1.938,1.875-2.672s1.734-1.281,2.813-1.672s2.234-0.578,3.484-0.578c1.281,0,2.469,0.203,3.547,0.594
		c1.078,0.406,2.016,0.953,2.797,1.672c0.766,0.734,1.375,1.609,1.813,2.656s0.656,2.219,0.656,3.516
		c0,0.719-0.078,1.344-0.219,1.906c-0.125,0.563-0.328,1.094-0.594,1.609c-0.25,0.516-0.578,1.016-0.969,1.516
		c-0.391,0.516-0.844,1.047-1.328,1.625l-8.109,9.406H173.469z M182.531,259.484l-14.203,18.641
		c-0.938,1.203-2.453,1.875-4.047,1.766c-1.563-0.109-2.984-0.984-3.703-2.297l-9.359-17.063c-0.781-1.438-2.344-2.313-4.031-2.313
		h-11.406c-0.938,0-1.844,0.313-2.625,0.813c-1.672,1.375-2.094,3.688-0.875,5.484l9.703,14.328
		c0.734,1.078,0.922,2.406,0.469,3.609l-17.422,50.344c-0.609,1.766-2.344,2.953-4.313,2.953H98.859
		c-2.516,0-4.563-1.906-4.563-4.266v-32.109c0-2.375-2.031-4.281-4.547-4.281H75.656c-2.516,0-4.547-1.922-4.547-4.281v-30.219
		c0-2.359,2.031-4.281,4.547-4.281h27.578c2.516,0,4.547-1.906,4.547-4.25v-1.141c0-2.359-2.031-4.266-4.547-4.266h-4.109
		c-2.516,0-4.547,0.391-4.547,2.141c0,2.859-1.922,4.141-4.328,4.234c0.078,0,0.141,0.031,0.219,0.031h-0.438
		c0.078,0,0.141-0.031,0.219-0.031c-2.406-0.094-4.344-1.469-4.344-4.234c0-1.547-2.031-2.141-4.531-2.141h-5.719
		c-2.516,0-4.547-1.906-4.547-4.266v-10.359c0-1.5,0.844-2.906,2.234-3.672l16.594-9.203c0.703-0.406,1.5-0.594,2.313-0.594h31.859
		c2.094,0,3.922-1.344,4.422-3.25l1.219-4.688c0.438-1.656-0.25-3.313-1.547-4.313c-1.328,0.125-2.578,0.594-3.359,1.656
		l-3.125,4.25c-1.344,1.875-4.031,2.422-6.094,1.25l-5.125-2.906c-2.047-1.156-2.781-3.594-1.719-5.563l13.594-25.25
		c0.781-1.438,2.344-2.344,4.063-2.344h9.125c1.609,0,3.094,0.781,3.906,2.094l6.797,10.844c0.828,1.313,2.313,2.125,3.922,2.125
		h4.984c1.766,0,3.375-0.969,4.125-2.469l8.031-16.156c0.75-1.5,2.344-2.469,4.109-2.469l96.422-0.125
		c2.266,0,4.109,1.719,4.109,3.844v28.094c0,1.469-0.906,2.813-2.313,3.438l-35.547,13.031c-1.25,0.563-2.141,1.656-2.453,2.922
		l-2.938,12.703c-0.453,1.938-2.313,3.344-4.438,3.344h-0.172c-2.516,0-4.547-1.906-4.547-4.266c0-1.234-2.516-0.859-4.125,0.891
		c-1.313,1.438-3.172,4-4.25,5.594l-10.203,14.906c-0.828,1.219-2.266,1.953-3.828,1.953h-10.938
		C184.766,257.703,183.391,258.344,182.531,259.484z M205.375,284.594c-1.453,0-2.625-1.047-2.625-2.344v-1.172
		c0-1.297-1.156-2.344-2.625-2.344h-0.531c-1.453,0-2.625-1.047-2.625-2.344v-1.766c0-1.328,1.172-2.375,2.625-2.375h16.438
		c1.219,0,2.313-0.781,2.547-1.844l1.469-6.063c0.266-1.078,1.328-1.844,2.578-1.844h7.344c0.797,0,1.547,0.313,2.047,0.891
		c0.484,0.547,0.703,1.266,0.516,1.953l-4.25,17.406c-0.266,1.094-1.328,1.844-2.563,1.844H205.375z M214.063,290.328v1.078
		c0,1.281-1.188,2.344-2.625,2.344h-5.531c-1.438,0-2.625-1.063-2.625-2.344v-1.078c0-1.297,1.188-2.359,2.625-2.359h5.531
		C212.875,287.969,214.063,289.031,214.063,290.328z M224.813,259.313c-0.797,0-1.531-0.313-2.031-0.844
		c-0.5-0.563-0.703-1.281-0.563-1.953l1.656-7.734c0.25-1.094,1.313-1.906,2.578-1.906h11.422c0.766,0,1.5,0.313,2.016,0.844
		c0.484,0.547,0.703,1.25,0.563,1.938l-1.656,7.75c-0.234,1.094-1.313,1.906-2.578,1.906H224.813z M190.031,294.078v-1.516
		c0-1.281,0.281-2.344-0.969-2.344h-0.281c-1.156,0-1.844-1.063-1.844-2.359v-3.234c0-1.297,1.188-2.359,2.625-2.359h0.469h6.625
		c1.453,0,2.625,1.063,2.625,2.359v5.594v3.859c0,1.297-1.172,2.344-2.625,2.344h-4
		C191.203,296.422,190.031,295.375,190.031,294.078z M209.625,401.438c-0.5,1.094-1.156,2-2,2.719s-1.828,1.25-2.938,1.625
		c-1.125,0.344-2.313,0.516-3.563,0.516c-1.188,0-2.344-0.172-3.438-0.484c-1.094-0.328-2.063-0.844-2.938-1.531
		c-0.844-0.688-1.531-1.578-2.063-2.656c-0.5-1.063-0.781-2.375-0.813-3.875h5.313c0.031,0.641,0.141,1.203,0.359,1.688
		c0.219,0.469,0.516,0.875,0.859,1.188s0.766,0.531,1.25,0.688c0.469,0.141,0.969,0.219,1.469,0.219
		c1.156,0,2.094-0.344,2.828-1.031c0.734-0.703,1.094-1.703,1.094-3c0-1.219-0.359-2.188-1.047-2.922
		c-0.719-0.719-1.719-1.078-3.031-1.078h-0.781v-4.609h0.781c1.313,0,2.25-0.344,2.813-1.047c0.578-0.688,0.859-1.547,0.859-2.578
		c0-1.219-0.359-2.141-1.047-2.766c-0.719-0.625-1.547-0.938-2.5-0.938c-1,0-1.844,0.297-2.5,0.906
		c-0.672,0.625-1.031,1.469-1.094,2.594h-5.281c0.016-1.313,0.266-2.469,0.75-3.484c0.469-1.016,1.094-1.891,1.891-2.578
		c0.797-0.719,1.719-1.25,2.797-1.641c1.063-0.391,2.219-0.578,3.438-0.578c1.281,0,2.469,0.219,3.547,0.625
		s2.016,0.969,2.813,1.703s1.391,1.609,1.828,2.641c0.438,1,0.656,2.125,0.656,3.344c0,1.594-0.313,2.844-0.953,3.781
		s-1.438,1.656-2.391,2.188c1.031,0.531,1.922,1.328,2.656,2.375s1.094,2.453,1.094,4.219
		C210.344,399.094,210.094,400.359,209.625,401.438z M219.531,339.75l-1.797-2.844c-0.328-0.531-0.953-0.875-1.641-0.875h-20.406
		c-1.063,0-1.906-0.781-1.906-1.766v-12.578c0-0.578,0.297-1.125,0.781-1.438l12.688-8.688c0.594-0.406,1.359-0.469,1.984-0.156
		c0.641,0.297,1.047,0.906,1.047,1.578v-0.672c0,0.969,0.844,1.781,1.891,1.781h7.797c1.047,0,1.891-0.813,1.891-1.781
		c0-0.984,0.844-1.781,1.906-1.781h0.797c0.563,0,1.078,0.219,1.438,0.594l10.328,11.031c0.297,0.313,0.469,0.75,0.469,1.156v10.094
		c0,0.469-0.203,0.938-0.578,1.281l-6,5.469c-0.359,0.313-0.844,0.5-1.328,0.5h-7.734
		C220.484,340.656,219.875,340.313,219.531,339.75z M247.844,401.938h-2.641v4.125h-5.094v-4.125H228.25v-5.016l9.938-19.891h5.797
		l-9.953,19.891h6.078V391.5h5.094v5.422h2.641V401.938z M283.406,400.531c-0.344,1.219-1.031,2.344-2.094,3.406
		c-0.656,0.656-1.5,1.219-2.531,1.672c-1.063,0.453-2.344,0.688-3.859,0.688s-2.828-0.234-3.922-0.688
		c-1.078-0.453-1.938-1.016-2.563-1.641c-0.906-0.891-1.5-1.844-1.797-2.875c-0.297-1.047-0.484-2.094-0.578-3.156h5.313
		c0.125,1.156,0.469,2.031,1.031,2.656s1.406,0.938,2.516,0.938c1.047,0,1.891-0.313,2.516-0.938
		c0.469-0.469,0.781-1.063,0.922-1.813c0.156-0.75,0.234-1.594,0.234-2.5c0-1.688-0.281-2.984-0.813-3.875
		c-0.516-0.906-1.438-1.344-2.75-1.344c-1.078,0-1.875,0.25-2.406,0.75s-0.906,1.031-1.094,1.609h-4.844v-16.391h16.547v4.781H271.5
		v6.219c0.375-0.375,0.953-0.719,1.719-1.016c0.781-0.297,1.656-0.453,2.641-0.453c1.219,0,2.281,0.188,3.172,0.531
		c0.906,0.359,1.656,0.844,2.25,1.438c1.141,1.141,1.859,2.375,2.156,3.688s0.438,2.656,0.438,4.063
		C283.875,397.906,283.719,399.313,283.406,400.531z M319.906,401.094c-0.453,1.094-1.094,2.047-1.906,2.813
		c-0.813,0.781-1.781,1.375-2.875,1.781s-2.281,0.609-3.563,0.609s-2.469-0.203-3.563-0.578c-1.109-0.406-2.063-0.984-2.875-1.75
		c-0.813-0.75-1.469-1.688-1.922-2.813c-0.453-1.109-0.703-2.375-0.703-3.828c0-1.328,0.25-2.609,0.75-3.859
		c0.484-1.25,1.063-2.547,1.703-3.875l6.109-12.563h5.797l-6.031,11.984c0.359-0.141,0.703-0.234,1.078-0.281
		s0.719-0.078,1.078-0.078c0.984,0,1.922,0.188,2.828,0.594c0.906,0.375,1.734,0.938,2.453,1.688
		c0.719,0.719,1.297,1.625,1.703,2.703c0.438,1.078,0.641,2.281,0.641,3.609C320.609,398.688,320.375,399.969,319.906,401.094z
		 M357.813,381.813l-9.406,24.25h-5.75l9.422-24.25h-7.672v4.563h-5.047v-9.344h18.453V381.813z M393.781,401.344
		c-0.5,1.078-1.156,1.969-2,2.719c-0.844,0.719-1.844,1.281-2.969,1.656c-1.125,0.391-2.313,0.578-3.594,0.578
		s-2.484-0.188-3.625-0.578c-1.125-0.375-2.094-0.938-2.938-1.656c-0.844-0.75-1.516-1.641-2-2.719
		c-0.5-1.063-0.734-2.313-0.734-3.719c0-0.906,0.109-1.688,0.344-2.375s0.516-1.281,0.875-1.813s0.734-0.984,1.172-1.375
		c0.406-0.375,0.828-0.688,1.234-0.969c-0.391-0.25-0.766-0.563-1.141-0.938s-0.719-0.813-1.031-1.313
		c-0.313-0.469-0.578-1.031-0.781-1.656s-0.313-1.344-0.313-2.125c0-1.281,0.25-2.422,0.719-3.438
		c0.469-1.031,1.125-1.906,1.938-2.625s1.75-1.25,2.828-1.641s2.234-0.578,3.453-0.578s2.375,0.188,3.438,0.578s2,0.922,2.813,1.641
		s1.438,1.594,1.906,2.625c0.484,1.016,0.719,2.156,0.719,3.438c0,0.781-0.094,1.5-0.313,2.125
		c-0.188,0.625-0.453,1.188-0.766,1.656c-0.313,0.5-0.672,0.938-1.047,1.313c-0.406,0.375-0.781,0.688-1.125,0.938
		c0.406,0.281,0.813,0.594,1.234,0.969c0.422,0.391,0.828,0.844,1.188,1.375s0.672,1.125,0.891,1.813
		c0.234,0.688,0.344,1.469,0.344,2.375C394.5,399.031,394.25,400.281,393.781,401.344z M430.406,389.625
		c-0.484,1.25-1.047,2.547-1.688,3.875l-6.156,12.563h-5.75l6.031-12c-0.359,0.156-0.719,0.25-1.094,0.297
		c-0.359,0.047-0.719,0.078-1.063,0.078c-0.984,0-1.938-0.188-2.859-0.594c-0.922-0.391-1.734-0.953-2.453-1.688
		c-0.703-0.734-1.281-1.625-1.703-2.688c-0.438-1.063-0.656-2.281-0.656-3.625c0-1.422,0.234-2.688,0.703-3.813
		c0.453-1.125,1.094-2.094,1.906-2.859s1.781-1.359,2.875-1.766s2.281-0.625,3.563-0.625s2.469,0.203,3.563,0.594
		c1.109,0.406,2.063,0.969,2.875,1.734s1.469,1.703,1.922,2.813s0.703,2.391,0.703,3.828
		C431.125,387.094,430.875,388.375,430.406,389.625z M437.969,290.938c0,1.266-0.531,2.5-1.484,3.563l-40,44.031
		c-1.609,1.766-4.297,2.828-7.156,2.828h-12.281c-2.422,0-4.734-0.766-6.359-2.078s-2.438-3.094-2.234-4.875l7.266-62.625
		c0.25-2.156-0.969-4.266-3.281-5.594l-36.969-21.484c-1.75-1-2.875-2.453-3.219-4.047l-5.078-23.844
		c-0.656-3.125-4.266-5.406-8.5-5.406h-16.953c-4.75,0-8.609-2.875-8.609-6.406v-27.219c0-3.531,3.859-6.406,8.609-6.406h111.875
		c3.875,0,7.281,1.938,8.313,4.719l12.313,33.531c0.75,2.063,0.063,4.281-1.813,5.875l-28.297,24.188
		c-1.641,1.391-4.016,2.188-6.5,2.188h-4.375c-3.375,0-6.422,1.469-7.844,3.75c-1.391,2.266-0.891,4.938,1.313,6.844l6.328,5.438
		c1.625,1.438,4.016,2.25,6.516,2.25h29.813c4.75,0,8.609,2.859,8.609,6.375V290.938z"/>
</g>
</svg>